<?xml version="1.0" encoding="utf-8"?>
<svg viewBox="0 0 717.82 1032.9" xmlns="http://www.w3.org/2000/svg">
  <g fill="#3a210b" fill-rule="evenodd" stroke="#3a210b" transform="matrix(0, -1, 1, 0, -239.247932, 911.885647)">
    <path transform="rotate(90 763.96 587.62)" d="m774.36 518.61c3.409-0.474 5.915 0.39905 8.024 1.922 1.162 0.742 2.126 1.753 2.982 2.867 0.85602 1.114 1.602 2.333 2.221 3.565 1.239 2.465 1.939 5.025 1.521 7.024-0.25195 1.201 0.20001 2.009 0.59802 2.4659 0.95502 0.45606 2.161 0.75604 3.588 0.82306 1.426 0.065979 3.074-0.104 4.885-0.59406 1.958-0.53796 4.1559-1.784 6.312-3.983 2.042-2.252 3.419-5.142 3.958-8.27 0.096008-0.466 0.17804-0.92896 0.24701-1.387 0.42602-8.089-2.249-16.042-7.717-22.176-7.74-7.723-17.458-10.912-26.248-10.559-10.732 0.071991-20.989 4.668-28.455 12.763-6.398 6.753-10.664 16.054-11.285 26.459-0.009949 0.43396-0.013977 0.867-0.011963 1.299 0.026001 5.369 0.92499 10.621 2.605 15.556 1.681 4.935 4.144 9.553 7.245 13.624 2.862 3.987 6.37 7.642 10.467 10.707s8.783 5.541 13.976 7.135c5.338 1.498 10.853 2.018 16.313 1.579 5.46-0.44 10.865-1.838 15.946-4.153 9.647-4.334 18.169-11.719 24.019-21.415 5.876-9.88 8.883-21.489 8.672-33.188-0.172-11.328-3.333-22.692-9.42-32.417-7.799-12.238-19.515-21.219-32.614-25.777-12.911-4.534-27.068-4.989-40.209-1.087-9.637 2.882-18.531 8.131-25.851 15.177-7.683 7.443-13.527 16.529-17.709 26.159-5.303 12.278-8.278 25.197-9.636 38.156-1.358 12.958-1.104 25.953 0.061951 38.429 1.634 17.996 5.043 35.413 9.922 51.692s11.227 31.416 18.615 45.069c5.358 9.894 11.219 18.976 17.129 27.399 2.175 3.1 4.349 6.096 6.42 9.064 1.431 2.062 2.822 4.01 3.838 6.046l-9.756 5.418c-0.45703-1.018-1.576-2.487-3.009-4.613-2.036-2.907-4.21-5.9-6.423-9.0601-6.366-9.08-12.385-18.599-17.763-28.667-16.599-31.222-26.1-66.181-28.766-101.56-2.266-26.625 0.02301-55.189 11.659-81.305 4.734-10.482 11.406-20.359 20.13-28.56 8.377-7.768 18.405-13.425 29.253-16.45 14.663-4.03 30.179-3.263 44.364 2.032 14.206 5.216 26.87 15.249 35.406 29.075 6.485 10.805 9.808 23.264 9.785 35.801 0.031006 12.573-3.347 25.123-10.021 35.989-6.454 10.308-15.702 18.249-26.442 22.873-10.809 4.745-23.115 5.753-35.024 2.269-11.001-3.576-20.005-10.671-26.191-19.558-6.572-8.759-10.567-20.23-10.244-32.922 0.78101-11.363 5.265-21.369 12.078-28.724 7.99-8.899 18.956-14.167 30.841-14.592 9.522-0.77798 20.367 2.515 29.756 11.244 0.23004 0.24701 0.45502 0.49701 0.67602 0.74902 2.005 2.286 3.578 4.638 4.819 6.98 1.242 2.341 2.152 4.673 2.809 6.956 1.312 4.567 1.627 8.924 1.329 13.013-0.422 4.597-1.975 8.561-4.352 11.894-2.666 3.441-5.249 5.663-7.623 6.948-2.77 1.542-5.364 2.661-7.831 3.474-2.467 0.81195-4.812 1.312-6.99 1.537-1.726 0.26099-3.504 0.46899-5.355 0.62396-3.039 0.25403-5.917 0.044006-8.464-0.54394-3.39-0.74304-6.162-2.129-8.274-4.061-1.055-0.96698-1.947-2.074-2.646-3.336-0.70001-1.262-1.206-2.679-1.45-4.267-0.258-1.676-0.32599-3.459-0.12201-5.24 0.20502-1.781 0.68402-3.559 1.496-5.213 0.81195-1.654 1.958-3.181 3.424-4.457 1.465-1.275 3.248-2.293 5.255-2.965 1.023-0.341 2.112-0.59406 3.257-0.75305z" style="fill: rgb(255, 255, 255); stroke: rgb(255, 255, 255);"/>
    <path transform="rotate(85 717.19 449.11)" d="m663.59 408.02c1.27-1.379 2.543-2.157 3.857-2.586 1.244-0.52899 2.485-0.48599 3.744-0.28799 1.26 0.198 2.544 0.552 3.802 0.952 1.258 0.39999 2.486 0.85998 3.536 1.443 1.049 0.58398 1.914 1.305 2.418 2.17 0.52002 0.89298 1.246 1.1 1.752 1.111 0.82404-0.35202 1.715-0.978 2.611-1.928 0.99896-1.076 1.926-2.736 2.375-5.202 0.31097-2.185 0.019958-4.592-1.03-6.886-0.94696-2.368-2.392-4.548-4.025-6.259-3.027-2.597-6.703-4.353-10.766-5.027-8.353-0.83301-15.772 2.066-20.985 6.68-6.574 5.429-10.816 13.356-11.795 22.096-0.92798 7.356 0.59003 15.242 4.895 22.119 3.411 4.989 7.782 8.77 12.565 11.273 2.352 1.228 4.83 2.176 7.376 2.819 3.577 1.033 7.41 1.534 11.355 1.37 3.946-0.164 8.003-0.99399 11.995-2.632 4.002-1.769 7.667-4.225 10.86-7.25s5.915-6.619 8.015-10.629c3.997-7.529 5.922-16.386 5.127-25.386-0.86401-9.062-4.267-17.755-9.737-24.901-5.245-6.903-12.36-12.346-20.594-15.318-8.886-3.209-18.797-4.049-28.41-1.663-7.387 1.788-14.624 5.773-20.139 12.147-5.384 6.434-9.007 14.249-10.691 22.467-1.771 8.727-1.537 17.669 0.19501 26.121 2.133 10.266 6.196 19.813 11.573 28.391 5.377 8.579 12.064 16.189 19.412 22.614 5.493 4.84 11.406 9.141 17.673 12.699 5.708 3.236 11.666 5.824 17.719 7.829 12.404 4.091 24.947 5.844 37.004 7.488 7.406 1.018 14.687 2.04 21.787 3.241 7.1 1.202 14.02 2.584 20.71 4.277 19.566 4.947 37.182 12.359 52.253 20.483l-4.285 8.778c-16.046-8.563-32.902-15.35-50.233-19.89-13.303-3.516-27.244-5.658-41.511-7.839-12.328-1.825-25.309-3.944-38.326-8.433-6.515-2.278-12.886-5.192-18.973-8.782-6.749-3.998-13-8.723-18.722-13.96-15.601-13.989-27.969-33.194-32.34-55.65-1.747-9.243-1.811-19.085 0.315-28.817 2.021-9.111 6.212-17.747 12.412-24.929 6.576-7.245 14.767-11.667 23.073-13.456 10.608-2.39 21.385-1.371 31.065 2.35 8.934 3.416 16.649 9.427 22.338 17.175 5.742 7.743 9.363 17.183 10.194 27.27 0.70898 9.65-1.388 19.218-5.927 27.498-4.525 8.401-11.694 15.233-20.703 19.115-8.521 3.352-17.353 3.515-25.239 1.122-8.081-2.094-15.811-7.215-21.486-15.319-4.764-7.548-6.58-16.068-5.702-24.11 0.89502-9.637 5.313-18.49 12.554-24.828 3.807-3.665 8.927-6.433 15.016-7.595 2.974-0.56702 5.95-0.715 8.861-0.539 2.415 0.35001 4.58 0.98099 6.528 1.792 1.949 0.811 3.681 1.802 5.229 2.912 3.097 2.22 5.47 4.896 7.315 7.85 1.888 3.157 2.814 6.551 2.859 10.066-0.096985 3.547-0.69 6.368-1.64 8.464-1.012 2.296-2.121 4.317-3.302 6.087-1.181 1.769-2.437 3.287-3.702 4.513-0.48401 0.518-0.98102 1.034-1.492 1.547-2.299 2.314-4.762 4-7.125 5.036-2.491 1.131-4.848 1.54-7.045 1.306-2.196-0.23401-4.267-1.099-6.044-2.843-1.91-1.874-3.544-4.404-4.1591-7.334-0.30798-1.466-0.36096-3.026-0.11896-4.598 0.24097-1.571 0.77997-3.151 1.588-4.633 0.60895-1.107 1.378-2.169 2.291-3.161z" style="fill: rgb(255, 255, 255); stroke: rgb(255, 255, 255);"/>
    <path transform="rotate(110 587.63 512.19)" d="m612.12 526.65c-0.88202 2.542-1.143 4.404-1.002 6.14 0.14203 1.736 0.67902 3.339 1.471 4.874 0.79199 1.536 1.849 2.982 3.038 4.156s2.515 2.061 3.74 2.508c1.064 0.388 2.735 0.68402 4.259 1.072 1.524 0.388 2.906 0.896 3.238 2.042 0.13995 0.48804-0.095032 1.432-0.64905 2.64-0.55298 1.21-1.43 2.68-2.548 4.193-1.013 1.298-2.2 2.592-3.437 3.766-1.236 1.174-2.523 2.23-3.702 3.118-1.401 1.054-3.656 2.818-7.068 4.614-1.707 0.89703-3.704 1.796-6.015 2.557-2.31 0.76202-4.937 1.387-7.871 1.698-4.65 0.47101-9.972 0.23602-15.631-1.261-5.66-1.496-11.662-4.266-17.302-8.72-3.342-2.676-6.526-5.841-9.422-9.481-2.895-3.639-5.501-7.755-7.687-12.277-2.438-5.046-4.04-9.851-5.128-14.313-0.89398-3.616-1.306-7.05-1.392-10.279-0.085999-3.229 0.15698-6.254 0.62994-9.089 0.47302-2.837 1.179-5.485 2.064-7.971 0.88599-2.487 1.95-4.812 3.178-7.004 2.688-4.631 5.824-8.582 9.551-12.202s8.068-6.918 13.297-9.794c3.887-2.176 8.285-4.194 13.375-5.825 5.089-1.632 10.88-2.887 17.464-3.273 4.841-0.289 10.111-0.087006 15.746 0.923 5.636 1.01 11.643 2.826 17.782 5.901l3.866-9.175c-11.97-5.984-25.106-8.476-38.067-7.418-11.911 0.939-23.636 4.811-34.138 11.512-9.479 5.855-18.047 14.742-23.891 26.518-5.564 11.735-6.813 25.424-3.212 38.472 4.016 14.416 12.017 27.946 23.84 37.906 9.856 8.171 22.171 12.825 35.212 12.638 4.782-0.10602 9.514-0.97601 14.053-2.578 2.381-0.84204 4.51-1.804 6.439-2.818 1.928-1.013 3.655-2.081 5.23-3.173 3.149-2.184 5.696-4.445 7.952-6.83 2.194-2.551 4.018-5.092 5.677-7.911 1.659-2.82 3.157-5.924 4.446-9.645 0.89099-2.569 1.261-5.514 1.082-8.384-0.177-2.869-0.89905-5.658-2.006-8.024-1.107-2.368-2.59-4.315-4.225-5.664-1.636-1.349-3.418-2.104-5.191-2.223-1.518-0.10199-3.223-0.064026-4.946 0.16498-1.725 0.22803-3.47 0.64899-5.082 1.28-1.613 0.63196-3.094 1.472-4.303 2.555-1.208 1.084-2.136 2.406-2.715 4.084z" style="fill: rgb(255, 255, 255); stroke: rgb(255, 255, 255);"/>
    <path transform="rotate(70 340.44 653)" d="m135.41 1057.4c4.866-49.84 14.173-98.367 26.45-145.28 12.503-47.81 28.019-94.087 45.574-138.92 33.703-86.07 74.705-167.18 119.8-244.34 34.925-59.775 72.373-117.27 112.04-172.32 11.773-16.337 23.735-32.448 35.96-48.221 3.301-4.261 6.616-8.489 9.956-12.666h0.001007c0.86697-1.083 1.731-2.158 2.596-3.223 0.21902-0.26901 0.436-0.53601 0.65201-0.79901-0.17499 0.177-0.35098 0.354-0.52701 0.53201 19.283-14.617 38.468-29.129 57.554-43.536-1.946 9.36-3.769 18.586-5.466 27.679l-39.075 32.701 2.202-2.306c-0.181 0.245-0.36899 0.50198-0.56299 0.76599-0.77701 1.06-1.562 2.142-2.358 3.245-3.071 4.25-6.13 8.571-9.192 12.945-11.337 16.194-22.418 32.729-33.329 49.507-36.757 56.53-71.137 115.19-102.86 175.76-40.934 78.211-77.443 159.33-106.26 243.79-15.004 43.959-27.904 88.7-37.735 134.15-6.613 30.611-11.878 61.495-15.342 92.477-20.289 11.25-40.346 23.87-60.067 38.07z" style="fill: rgb(255, 255, 255); stroke: rgb(255, 255, 255);"/>
    <path transform="rotate(75 526.34 589.15)" d="m494.05 446.24c12.151 5.439 23.758 13.195 34.036 23.416 10.613 10.57 19.659 23.779 26.287 38.896 14.482 33.542 16.069 74.015 8.556 110.71-6.208 31.315-15.538 62.249-29.519 90.543-3.709 7.498-7.83 14.893-12.526 21.965-0.066956 0.10101-0.13397 0.20203-0.20196 0.30298-5.612-3.157-11.129-6.538-16.353-10.398-1.42-1.049-2.808-2.147-4.133-3.331-0.33701-0.302-0.659-0.62006-0.96298-0.961-0.067017-0.098022-0.12601-0.20502-0.17801-0.32001 2.619 3.67 5.261 7.374 7.927 11.112 0.001984 0.001953 0.005005 0.006958 0.006989 0.008972-0.001984-0.002014-0.005005-0.007019-0.006989-0.008972-2.666-3.738-5.332-7.475-7.998-11.211-0.016998 0.018982-0.027985 0.031006-0.031982 0.03595 0.027985-0.031982 0.069-0.079956 0.12299-0.14294 0.21301-0.25 0.44702-0.53802 0.70602-0.86005 1.007-1.254 2.018-2.628 3.055-4.093 3.953-5.586 7.586-11.747 11.041-18.245 13.038-24.489 22.191-52.472 28.803-81.53 6.879-31.439 6.853-65.893-4.644-93.192-5.083-12.523-12.351-23.795-21.015-32.989-9.159-9.758-20.055-17.254-31.667-22.562 2.772-5.79 5.67-11.508 8.696-17.144z" style="fill: rgb(255, 255, 255); stroke: rgb(255, 255, 255);"/>
    <path transform="rotate(70 125.34 468.62)" d="m55.364 362.75c1.4121-0.689 2.5161-1.31 3.4181-1.912 2.042-1.346 3.049-2.601 4.444-3.809 0.698-0.604 1.496-1.191 2.585-1.727 1.0879-0.53699 2.468-1.027 4.324-1.387 4.8979-0.90802 9.881-1.374 14.863-1.46 10.524-0.17798 21.058 1.396 31.128 4.525 11.097 3.449 21.632 8.827 31.061 15.799 10.641 7.861 19.869 17.785 27.396 28.935 9.01 13.333 15.592 28.431 20.225 44.137 5.85 19.841 8.583 40.662 9.394 61.56 1.042 27.057-1.2 54.232-5.264 81.117l11.137 1.71c3.624-27.53 5.348-55.486 3.737-83.364-1.239-21.541-4.541-43.111-11.047-63.731-5.155-16.343-12.43-32.069-22.231-45.991-8.207-11.649-18.206-21.934-29.662-30.04-10.153-7.178-21.399-12.608-33.178-15.991-10.679-3.068-21.789-4.471-32.845-4.045-5.2289 0.198-10.462 0.806-15.611 1.881-3.692 0.75601-6.0611 0.90201-8.13 0.845-2.068-0.058014-3.8231-0.30701-6.15 0.006989-1.259 0.16299-2.69 0.49701-4.405 1.182-1.042 0.41602-2.546 1.364-4.165 2.687-1.619 1.322-3.344 3.023-4.855 4.853-1.512 1.829-2.803 3.783-3.694 5.521-0.891 1.739-1.388 3.254-1.455 4.207 0.781 0.02301 2.127-0.392 3.7629-0.92499 1.6371-0.53403 3.5701-1.179 5.5311-1.761 1.961-0.58301 3.9489-1.108 5.666-1.569 1.717-0.45999 3.161-0.86398 4.0199-1.254z" style="fill: rgb(255, 255, 255); stroke: rgb(255, 255, 255);"/>
    <path transform="rotate(70 123.78 691.46)" d="m168.85 655.15c1.575 1.025 2.734 2.168 3.602 3.398 0.867 1.232 1.444 2.553 1.824 3.937 0.482 1.445 0.62399 2.969 0.607 4.502-0.016998 1.531-0.19299 3.072-0.48399 4.532-0.291 1.461-0.703 2.841-1.255 4.029-0.55299 1.187-1.248 2.18-2.077 2.854-0.99701 0.81097-1.149 1.801-1.117 2.462 0.993 2.124 3.249 4.475 6.908 6.261 1.984 0.95904 4.631 1.507 7.866 1.239 3.176-0.39502 6.216-1.792 8.714-3.986 0.38399-0.31604 0.75499-0.63904 1.113-0.96802 5.652-6.366 8.631-14.843 8.092-23.82-1.391-11.917-7.398-21.511-14.951-27.519-8.988-7.631-20.542-11.191-32.062-9.863-9.752 0.98602-19.395 5.601-26.726 13.738-0.29199 0.35095-0.57999 0.70496-0.86099 1.063-3.494 4.447-6.183 9.422-8.015 14.698-1.832 5.275-2.805 10.849-2.886 16.429-0.227 5.34 0.303 10.868 1.708 16.333 1.406 5.463 3.688 10.863 6.971 15.899 3.466 5.061 7.719 9.442 12.555 12.993 4.836 3.549 10.255 6.268 16.003 8 10.875 3.339 22.809 3.354 34.031-0.453 11.365-3.938 21.471-11.359 28.956-21.16 7.274-9.467 12.083-21.104 13.379-33.489 1.517-15.683-2.362-31.487-10.29-44.632-7.787-12.992-19.282-23.512-32.784-29.709-9.915-4.53-20.761-6.572-31.472-6.006-11.274 0.633-22.092 3.94-31.882 8.886-12.457 6.327-23.394 14.852-33.011 24.568-9.616 9.716-17.913 20.616-25.112 31.742-10.423 16.015-18.987 32.824-25.582 49.747-6.595 16.925-11.219 33.959-14.004 50.515-2.015 12-3.0801 23.691-3.672 34.873-0.218 4.117-0.368 8.145-0.587 12.078-0.1581 2.726-0.274 5.328-0.7611 7.736l-11.676-2.521c0.28605-1.167 0.31705-3.18 0.51405-5.961 0.208-3.856 0.3569-7.884 0.582-12.075 0.643-12.052 1.862-24.217 3.9729-36.375 6.6171-37.648 21.594-73.291 42.541-104.39 15.546-23.586 36.157-45.507 62.951-58.71 10.807-5.253 22.832-8.6201 35.47-9.132 12.064-0.40503 24.122 2.115 35.141 7.394 14.853 7.183 27.276 18.934 35.626 33.466 8.418 14.482 12.399 31.832 10.457 49.353-1.673 13.559-7.062 26.217-15.291 36.542-8.207 10.393-19.239 18.324-31.914 22.504-12.126 3.879-25.03 3.802-37.004-0.080994-12.111-3.831-23.024-11.819-30.663-23.226-6.822-10.832-9.677-23.137-9.012-34.9 0.261-11.933 4.444-24.258 13.025-34.496 8.089-8.814 18.377-13.854 28.869-15.038 12.482-1.615 25.068 1.898 35.247 10.063 8.442 6.183 15.319 16.67 17.425 30.598 0.029999 0.36798 0.052994 0.73596 0.072998 1.102 0.173 3.322-0.056 6.389-0.556 9.211-0.49899 2.821-1.267 5.397-2.215 7.75-1.897 4.707-4.488 8.528-7.413 11.687-3.362 3.488-7.252 5.645-11.414 6.692-4.474 0.92804-8.081 0.90802-10.9 0.268-3.318-0.71301-6.211-1.649-8.799-2.746-2.587-1.098-4.867-2.366-6.829-3.741-1.609-1.021-3.227-2.124-4.869-3.323-2.699-1.968-4.958-4.204-6.695-6.514-2.337-3.042-3.74-6.172-4.233-9.278-0.246-1.554-0.265-3.106-0.019989-4.648 0.24399-1.542 0.75-3.075 1.586-4.56 0.88199-1.566 1.993-3.086 3.33-4.408 1.336-1.323 2.9-2.445 4.659-3.227 1.76-0.784 3.715-1.222 5.77-1.223 2.057-0.002991 4.208 0.43396 6.32 1.319 1.075 0.45099 2.148 1.023 3.206 1.713z" style="fill: rgb(255, 255, 255); stroke: rgb(255, 255, 255);"/>
    <path transform="rotate(100 36.711 485.76)" d="m-26.411 490.31c-0.9341 1.521-1.4731 2.967-1.7371 4.369-0.257 1.398-0.2389 2.754-0.0359 4.083 0.144 1.42 0.604 2.767 1.1989 4.056 0.594 1.288 1.323 2.519 2.1161 3.635 0.8009 1.112 1.667 2.11 2.5759 2.886 0.909 0.77698 1.8691 1.328 2.817 1.555 1.147 0.26999 1.6451 1.046 1.8671 1.62-0.0291 2.207-1.023 5.127-3.4141 8.154-1.294 1.631-3.3069 3.192-6.117 4.304-2.807 0.98004-5.8839 1.06-8.802 0.23602-0.441-0.10797-0.877-0.22601-1.301-0.35602-7.139-3.044-12.844-8.979-15.788-16.795-3.348-10.651-1.947-21.252 2.1101-29.463 4.633-10.172 12.967-17.97 23.114-21.616 8.536-3.203 18.357-3.293 27.576 0.55301 0.374 0.17801 0.749 0.358 1.125 0.54102 4.603 2.317 8.742 5.408 12.271 9.111 3.5289 3.703 6.449 8.017 8.633 12.7 2.2099 4.422 3.8559 9.317 4.7479 14.519s1.0221 10.715 0.1751 16.335c-0.983 5.713-2.8891 11.18-5.5981 16.186-2.7009 5.002-6.2139 9.547-10.37 13.391-7.842 7.325-17.831 12.28-28.668 13.708-11.003 1.374-22.273-0.71802-32.253-5.906-9.671-4.994-18.097-12.847-23.871-22.782-7.204-12.634-9.9345-27.606-8.2714-42.004 1.6043-14.211 7.2464-27.867 16.211-38.7 6.588-7.935 14.897-14.154 24.077-18.109 9.681-4.131 19.992-5.816 30.063-5.687 12.827 0.19101 25.209 2.874 36.938 7.108s22.797 10.019 33.037 16.446c14.784 9.228 28.321 19.895 40.244 31.478 11.923 11.582 22.245 24.071 30.838 36.92 6.227 9.315 11.541 18.761 16.268 27.972 1.74 3.391 3.389 6.737 5.059 9.972 1.17 2.236 2.25 4.391 3.57 6.225l8.822-6.967c-0.68301-0.86804-1.466-2.559-2.686-4.828-1.635-3.175-3.282-6.519-5.058-9.97-5.1-9.924-10.718-19.711-17.092-29.115-19.779-29.101-45.808-53.042-75.111-70.667-21.941-13.508-47.495-23.511-74.927-23.582-11.041 0.03299-22.383 2.166-33.156 6.963-10.258 4.655-19.402 11.779-26.626 20.803-9.7238 12.226-15.682 27.309-17.171 43.053-1.5735 15.735 1.6615 32.054 9.9117 46.069 6.5319 10.774 15.833 19.247 26.632 24.571 10.803 5.392 23.047 7.529 35.237 5.817 11.623-1.742 22.4-7.15 30.955-15.391 8.692-8.254 14.811-19.529 16.891-32.339 1.611-11.984-0.6501-23.573-5.663-33.244-4.7341-9.983-12.894-18.676-23.952-23.782-10.11-4.103-20.633-4.105-29.864-0.763-11.066 3.804-20.272 11.985-25.711 23.106-4.728 8.724-6.521 20.442-3.011 33.09 0.11 0.32498 0.235 0.64298 0.351 0.96399 1.119 2.878 2.469 5.378 3.953 7.559 1.483 2.179 3.108 4.037 4.786 5.637 3.3731 3.194 6.987 5.352 10.636 6.811 4.13 1.56 8.2029 1.774 12.089 0.93298 4.096-1.067 7.104-2.575 9.228-4.285 2.504-1.976 4.574-3.966 6.3271-5.967 1.7459-1.996 3.179-4.015 4.302-5.99 0.95701-1.528 1.898-3.132 2.817-4.824 1.518-2.784 2.564-5.609 3.143-8.281 0.805-3.541 0.796-6.769 0.037-9.602-0.383-1.415-0.956-2.735-1.744-3.938s-1.791-2.289-3.054-3.198c-1.33-0.96002-2.8389-1.783-4.457-2.349-1.6169-0.56601-3.349-0.87003-5.12-0.802-1.771 0.066986-3.572 0.50497-5.296 1.356-1.724 0.85001-3.362 2.111-4.794 3.733-0.727 0.827-1.4089 1.753-2.0309 2.774h-1e-5z" style="fill: rgb(255, 255, 255); stroke: rgb(255, 255, 255);"/>
    <path transform="rotate(70 150.53 441.54)" d="m58.746 296.82c2.68-0.27701 4.594-0.621 6.14-1.04 1.546-0.41901 2.722-0.90802 3.9149-1.372 1.1941-0.46399 2.4051-0.90399 4.0231-1.166 1.618-0.263 3.647-0.353 6.443-0.014008 1.573 0.20099 3.141 0.43799 4.703 0.70898 16.532 2.861 32.388 9.443 46.983 18.197 15.681 9.413 29.951 21.339 42.872 34.669 13.593 14.031 25.681 29.647 36.3 46.28 10.659 16.702 19.83 34.43 27.258 52.902 7.061 17.577 12.569 35.807 15.803 54.418 2.916 16.854 4.04 34.003 2.114 50.673-0.875 7.619-2.372 15.115-4.646 22.281-2.177 6.863-5.05 13.443-8.668 19.466l9.59 6.195c4.02-6.984 7.146-14.465 9.44-22.172 2.391-8.038 3.907-16.296 4.711-24.577 1.743-18.083 0.284-36.25-3.086-53.797-3.711-19.385-9.72-38.174-17.295-56.132-7.96-18.883-17.677-36.916-28.88-53.834-11.156-16.851-23.819-32.635-37.998-46.782-13.47-13.447-28.371-25.443-44.712-34.879-15.215-8.792-31.782-15.292-49.042-17.982-1.635-0.25403-3.274-0.47101-4.918-0.65201-2.866-0.324-5.033-0.68201-6.836-1.099-1.804-0.41699-3.243-0.89002-4.643-1.353-1.4-0.46402-2.76-0.91702-4.404-1.244-1.6451-0.327-3.5761-0.53101-6.099-0.41998-1.307 0.057007-3.312 0.46298-5.594 1.163-2.282 0.70001-4.838 1.696-7.264 2.857-2.427 1.16-4.722 2.483-6.5491 3.741-1.8269 1.259-3.1884 2.447-3.8103 3.302 0.7904 0.36801 2.4333 0.57001 4.5043 0.72699 2.0711 0.15701 4.569 0.276 7.097 0.414 2.527 0.138 5.083 0.29602 7.2961 0.41702 2.212 0.12 4.082 0.198 5.252 0.104z" style="fill: rgb(255, 255, 255); stroke: rgb(255, 255, 255);"/>
    <path transform="rotate(130 739.61 660.65)" d="m764.4 676.66c-2.245-2.03-3.725-4.388-5.02-6.8799-1.294-2.492-2.412-5.123-3.848-7.606-0.35199-0.60998-0.73297-1.214-1.141-1.812-1.42-2.065-3.186-4.036-5.25-5.834-2.065-1.798-4.428-3.424-7.009-4.807-2.1461-1.136-4.364-2.073-6.593-2.829-2.23-0.75604-4.47-1.333-6.684-1.765-2.073-0.40601-4.108-0.68903-6.111-0.89899-1.338 0.007996-2.712-0.044006-4.051 9.77e-4 -1.339 0.042969-2.647 0.18097-3.875 0.58398 1.843 0.992 3.591 2.03 5.262 3.132 1.67 1.102 3.261 2.265 4.758 3.477 3.279 2.661 6.068 5.574 8.374 8.407 1.306 1.586 2.521 3.168 3.79 4.707s2.592 3.034 4.127 4.483c0.12305 0.117 0.24902 0.232 0.37604 0.34601 2.231 1.981 5.031 3.507 8.167 4.768 3.136 1.26 6.596 2.243 9.952 2.961 0.96503 0.20599 1.863 0.87103 2.363 1.671" style="fill: rgb(255, 255, 255); stroke: rgb(255, 255, 255);"/>
    <path transform="rotate(65 647.4 588.54)" d="m668.16 562.39s-0.58099 0.12701-1.62 0.38c-1.039 0.25201-2.538 0.63403-4.368 1.184-3.661 1.099-8.663 2.9-13.815 5.741-2.595 1.418-5.208 3.169-7.637 5.209-2.428 2.04-4.665 4.371-6.576 6.822-2.316 3.051-3.963 6.181-5.067 8.847-1.106 2.667-1.688 4.865-1.994 6.133-0.12897 0.53796-0.23395 1.096-0.31 1.664-0.26898 2.16-0.14996 4.44 0.33502 6.543s1.334 4.027 2.428 5.574c1.095 1.548 2.433 2.72 3.875 3.42 1.444 0.70001 2.992 0.92999 4.57 0.66498 1.682-0.28101 3.006-1.004 4.052-1.929 1.044-0.92395 1.813-2.055 2.375-3.24 0.55902-1.186 0.909-2.424 1.1-3.639 0.19098-1.213 0.22498-2.403 0.12396-3.562-0.016968-0.20001-0.044006-0.40698-0.080994-0.62402-0.268-1.342-0.90601-3.098-1.401-5.271-0.495-2.173-0.828-4.759-0.64801-7.385 0.19299-2.867 1-5.735 2.217-7.896 1.452-2.577 3.26-4.902 5.159-6.886 2.109-2.213 4.32-4.052 6.397-5.556 2.075-1.505 4.018-2.677 5.656-3.579 1.638-0.90198 2.973-1.537 3.881-1.961 0.90802-0.42096 1.39-0.633 1.348-0.65399z" style="fill: rgb(255, 255, 255); stroke: rgb(255, 255, 255);"/>
    <path transform="rotate(55 177.27 497.67)" d="m202.06 513.68c-2.245-2.03-3.725-4.388-5.02-6.88-1.294-2.492-2.412-5.123-3.848-7.606-0.352-0.60998-0.733-1.214-1.141-1.812-1.42-2.065-3.186-4.036-5.25-5.834-2.065-1.798-4.428-3.424-7.009-4.807-2.146-1.136-4.364-2.073-6.593-2.829-2.23-0.75601-4.47-1.333-6.684-1.765-2.073-0.40601-4.108-0.689-6.111-0.89899-1.338 0.007996-2.712-0.044006-4.051 9.77e-4 -1.339 0.042999-2.647 0.181-3.875 0.58402 1.843 0.992 3.591 2.03 5.262 3.132 1.67 1.102 3.261 2.265 4.758 3.477 3.279 2.661 6.068 5.574 8.374 8.407 1.306 1.586 2.521 3.168 3.79 4.707s2.592 3.034 4.127 4.483c0.123 0.117 0.24899 0.232 0.37599 0.34601 2.231 1.981 5.031 3.507 8.167 4.768 3.136 1.26 6.596 2.243 9.952 2.961 0.965 0.20599 1.863 0.87103 2.363 1.671" style="fill: rgb(255, 255, 255); stroke: rgb(255, 255, 255);"/>
    <path transform="rotate(55 715.99 500.09)" d="m740.78 516.1c-2.2451-2.03-3.725-4.388-5.02-6.88-1.294-2.492-2.412-5.123-3.848-7.606-0.35199-0.60998-0.73297-1.214-1.141-1.812-1.42-2.065-3.186-4.036-5.25-5.834-2.065-1.798-4.428-3.425-7.009-4.808-2.146-1.135-4.364-2.072-6.593-2.828-2.23-0.75601-4.47-1.333-6.684-1.765-2.073-0.40698-4.108-0.689-6.111-0.89899-1.338 0.007996-2.712-0.044006-4.051 0s-2.647 0.18201-3.875 0.58499c1.843 0.992 3.591 2.03 5.262 3.132 1.67 1.102 3.261 2.265 4.758 3.477 3.279 2.661 6.068 5.574 8.374 8.407 1.306 1.586 2.521 3.168 3.79 4.707s2.592 3.033 4.127 4.483c0.12305 0.117 0.24902 0.232 0.37604 0.34601 2.231 1.98 5.031 3.506 8.167 4.768 3.136 1.26 6.596 2.243 9.952 2.96 0.96497 0.20599 1.863 0.87201 2.363 1.672" style="fill: rgb(255, 255, 255); stroke: rgb(255, 255, 255);"/>
  </g>
  <g stroke-width="5" transform="matrix(0, -1, 1, 0, -239.247932, 911.885647)">
    <circle transform="rotate(70 198.98 332.92)" cx="198.98" cy="332.92" r="8.544" fill="#007f00" stroke="#007f3f"/>
    <circle transform="rotate(70 235.99 298.23)" cx="235.99" cy="298.23" r="8.544" fill="#3f7f00" stroke="#3f7f00"/>
    <g fill="#ff007f" stroke="#ffaad4">
      <circle transform="rotate(70 229.05 266.01)" cx="229.05" cy="266.01" r="15.409"/>
      <circle transform="rotate(70 168.02 342.49)" cx="168.02" cy="342.49" r="12.544"/>
      <circle transform="rotate(70 155.26 722.08)" cx="155.26" cy="722.08" r="26.612"/>
      <circle transform="rotate(70 563.5 532.92)" cx="563.5" cy="532.92" r="21.04"/>
      <circle transform="rotate(70 817.86 603.16)" cx="817.86" cy="603.16" r="24.247"/>
    </g>
    <g fill="#007f00" stroke="#007f3f">
      <circle transform="rotate(70 780.88 725.09)" cx="780.88" cy="725.09" r="8.544"/>
      <circle transform="rotate(70 692.98 584.26)" cx="692.98" cy="584.26" r="8.5439"/>
    </g>
    <circle transform="rotate(70 742.93 401.05)" cx="742.93" cy="401.05" r="17.97" fill="#ff007f" stroke="#ffaad4"/>
    <circle transform="rotate(70 158.07 517.77)" cx="158.07" cy="517.77" r="8.544" fill="#007f00" stroke="#007f3f"/>
    <g fill="#ff007f" stroke="#ffaad4">
      <circle transform="rotate(70 692.99 614.96)" cx="692.99" cy="614.96" r="12.544"/>
      <circle transform="rotate(70 702.12 451.24)" cx="702.12" cy="451.24" r="12.544"/>
    </g>
    <g fill="#3f7f00" stroke="#3f7f00">
      <circle transform="rotate(70 698.86 481.14)" cx="698.86" cy="481.14" r="8.544"/>
      <circle transform="rotate(70 664.18 605.14)" cx="664.18" cy="605.14" r="8.544"/>
      <circle transform="rotate(70 179.18 369.14)" cx="179.18" cy="369.14" r="8.544"/>
    </g>
    <g fill="#007f00" stroke="#007f3f">
      <circle transform="rotate(70 265.18 272.14)" cx="265.18" cy="272.14" r="8.544"/>
      <circle transform="rotate(70 732.18 464.14)" cx="732.18" cy="464.14" r="8.544"/>
    </g>
    <circle transform="rotate(70 787.18 684.14)" cx="787.18" cy="684.14" r="8.5439" fill="#3f7f00" stroke="#3f7f00"/>
  </g>
  <g stroke-width="5" transform="matrix(0, -1, 1, 0, -239.247932, 911.885647)">
    <circle transform="rotate(70 812.24 709.15)" cx="812.24" cy="709.15" r="16.044" fill="#ff007f" stroke="#ffaad4"/>
    <circle transform="rotate(70 748.22 639.02)" cx="748.22" cy="639.02" r="8.544" fill="#007f00" stroke="#007f3f"/>
  </g>
  <circle cx="-761.967" cy="-795.598" r="26.044" fill="#ff007f" stroke="#ffaad4" stroke-width="5" transform="matrix(0, -1, 1, 0, 990.990447, 121.2393)"/>
</svg>